<?xml version="1.0" encoding="iso-8859-1"?>
<!-- Generator: Adobe Illustrator 19.0.0, SVG Export Plug-In . SVG Version: 6.00 Build 0)  -->
<svg version="1.1" id="Capa_1" xmlns="http://www.w3.org/2000/svg" xmlns:xlink="http://www.w3.org/1999/xlink" x="0px" y="0px"
	 viewBox="0 0 58 58" style="enable-background:new 0 0 58 58;" xml:space="preserve">
<g>
	<g>
		<path d="M53,43.5V27c0-10.201-8.302-18.5-18.506-18.5H23.506C13.302,8.5,5,16.799,5,27v16.5H0v2h6h2h4.05
			c0.252,2.243,2.139,4,4.45,4s4.198-1.757,4.45-4H37.05c0.251,2.243,2.139,4,4.45,4s4.198-1.757,4.45-4H50h2h6v-2H53z M50,43.5h-4
			v-6h-2v6v1.502c0,1.377-1.121,2.498-2.5,2.498S39,46.379,39,45.002V43.5v-6h-2v6H21v-6h-2v6v1.502c0,1.377-1.121,2.498-2.5,2.498
			S14,46.379,14,45.002V43.5v-6h-2v6H8H7V27c0-9.098,7.404-16.5,16.506-16.5h10.988C43.596,10.5,51,17.902,51,27v16.5H50z"/>
		<path d="M22.707,20.793c-0.391-0.391-1.023-0.391-1.414,0L19.5,22.586l-1.793-1.793c-0.391-0.391-1.023-0.391-1.414,0
			c-0.391,0.391-0.391,1.023,0,1.414L18.086,24l-1.793,1.793c-0.391,0.391-0.391,1.023,0,1.414C16.488,27.402,16.744,27.5,17,27.5
			s0.512-0.098,0.707-0.293l1.793-1.793l1.793,1.793C21.488,27.402,21.744,27.5,22,27.5s0.512-0.098,0.707-0.293
			c0.391-0.391,0.391-1.023,0-1.414L20.914,24l1.793-1.793C23.098,21.816,23.098,21.184,22.707,20.793z"/>
		<path d="M41.707,20.793c-0.391-0.391-1.023-0.391-1.414,0L38.5,22.586l-1.793-1.793c-0.391-0.391-1.023-0.391-1.414,0
			c-0.391,0.391-0.391,1.023,0,1.414L37.086,24l-1.793,1.793c-0.391,0.391-0.391,1.023,0,1.414C35.488,27.402,35.744,27.5,36,27.5
			s0.512-0.098,0.707-0.293l1.793-1.793l1.793,1.793C40.488,27.402,40.744,27.5,41,27.5s0.512-0.098,0.707-0.293
			c0.391-0.391,0.391-1.023,0-1.414L39.914,24l1.793-1.793C42.098,21.816,42.098,21.184,41.707,20.793z"/>
	</g>
</g>
<g>
</g>
<g>
</g>
<g>
</g>
<g>
</g>
<g>
</g>
<g>
</g>
<g>
</g>
<g>
</g>
<g>
</g>
<g>
</g>
<g>
</g>
<g>
</g>
<g>
</g>
<g>
</g>
<g>
</g>
</svg>
